<mxfile host="Electron" agent="Mozilla/5.0 (Macintosh; Intel Mac OS X 10_15_7) AppleWebKit/537.36 (KHTML, like Gecko) draw.io/28.0.6 Chrome/138.0.7204.100 Electron/37.2.3 Safari/537.36" version="28.0.6">
  <diagram name="Page-1" id="bMJHOics0cmP5hfuYZkd">
    <mxGraphModel dx="946" dy="679" grid="1" gridSize="10" guides="1" tooltips="1" connect="1" arrows="1" fold="1" page="1" pageScale="1" pageWidth="850" pageHeight="1100" math="0" shadow="0">
      <root>
        <mxCell id="0" />
        <mxCell id="1" parent="0" />
        <mxCell id="U-8MvL9AWw5VFPp7U1pE-1" value="" style="edgeStyle=orthogonalEdgeStyle;rounded=1;orthogonalLoop=1;jettySize=auto;html=1;sketch=1;curveFitting=1;jiggle=2;" edge="1" parent="1" source="U-8MvL9AWw5VFPp7U1pE-2" target="U-8MvL9AWw5VFPp7U1pE-4">
          <mxGeometry relative="1" as="geometry" />
        </mxCell>
        <mxCell id="U-8MvL9AWw5VFPp7U1pE-2" value="&lt;font face=&quot;Times New Roman&quot;&gt;Client&lt;/font&gt;" style="rounded=1;whiteSpace=wrap;html=1;fontSize=16;arcSize=40;absoluteArcSize=0;sketch=1;curveFitting=1;jiggle=2;" vertex="1" parent="1">
          <mxGeometry x="230" y="190" width="120" height="50" as="geometry" />
        </mxCell>
        <mxCell id="U-8MvL9AWw5VFPp7U1pE-3" value="" style="edgeStyle=orthogonalEdgeStyle;rounded=1;orthogonalLoop=1;jettySize=auto;html=1;fillColor=#dae8fc;strokeColor=#6c8ebf;sketch=1;curveFitting=1;jiggle=2;" edge="1" parent="1" source="U-8MvL9AWw5VFPp7U1pE-4" target="U-8MvL9AWw5VFPp7U1pE-6">
          <mxGeometry relative="1" as="geometry" />
        </mxCell>
        <mxCell id="U-8MvL9AWw5VFPp7U1pE-4" value="&lt;font face=&quot;Times New Roman&quot;&gt;nova-api&lt;/font&gt;" style="rounded=1;whiteSpace=wrap;html=1;fillColor=#bac8d3;strokeColor=#23445d;fontSize=16;arcSize=40;sketch=1;curveFitting=1;jiggle=2;" vertex="1" parent="1">
          <mxGeometry x="230" y="272" width="120" height="50" as="geometry" />
        </mxCell>
        <mxCell id="U-8MvL9AWw5VFPp7U1pE-5" value="" style="edgeStyle=orthogonalEdgeStyle;rounded=1;orthogonalLoop=1;jettySize=auto;html=1;fillColor=#dae8fc;strokeColor=#6c8ebf;sketch=1;curveFitting=1;jiggle=2;" edge="1" parent="1">
          <mxGeometry relative="1" as="geometry">
            <mxPoint x="350" y="390" as="sourcePoint" />
            <mxPoint x="440" y="300" as="targetPoint" />
            <Array as="points">
              <mxPoint x="420" y="390" />
              <mxPoint x="420" y="300" />
            </Array>
          </mxGeometry>
        </mxCell>
        <mxCell id="U-8MvL9AWw5VFPp7U1pE-6" value="&lt;font face=&quot;Times New Roman&quot;&gt;nova-volume&lt;/font&gt;" style="rounded=1;whiteSpace=wrap;html=1;fillColor=#bac8d3;strokeColor=#23445d;fontSize=16;arcSize=40;sketch=1;curveFitting=1;jiggle=2;" vertex="1" parent="1">
          <mxGeometry x="230" y="350" width="120" height="50" as="geometry" />
        </mxCell>
        <mxCell id="U-8MvL9AWw5VFPp7U1pE-7" value="REST API" style="text;html=1;align=center;verticalAlign=middle;resizable=0;points=[];autosize=1;strokeColor=none;fillColor=none;fontFamily=Times New Roman;rounded=1;fontColor=#F19C99;sketch=1;curveFitting=1;jiggle=2;" vertex="1" parent="1">
          <mxGeometry x="460" y="230" width="70" height="30" as="geometry" />
        </mxCell>
        <mxCell id="U-8MvL9AWw5VFPp7U1pE-8" value="RPC" style="text;html=1;align=center;verticalAlign=middle;resizable=0;points=[];autosize=1;strokeColor=none;fillColor=none;fontColor=#6C8EBF;rounded=1;sketch=1;curveFitting=1;jiggle=2;" vertex="1" parent="1">
          <mxGeometry x="291" y="320" width="50" height="30" as="geometry" />
        </mxCell>
        <mxCell id="U-8MvL9AWw5VFPp7U1pE-9" value="&lt;font face=&quot;Times New Roman&quot;&gt;cinder-api&lt;/font&gt;" style="rounded=1;whiteSpace=wrap;html=1;fillColor=#f8cecc;strokeColor=#b85450;fontSize=16;arcSize=40;sketch=1;curveFitting=1;jiggle=2;" vertex="1" parent="1">
          <mxGeometry x="440" y="270" width="120" height="50" as="geometry" />
        </mxCell>
        <mxCell id="U-8MvL9AWw5VFPp7U1pE-10" value="REST API" style="text;html=1;align=center;verticalAlign=middle;resizable=0;points=[];autosize=1;strokeColor=none;fillColor=none;fontColor=#6C8EBF;rounded=1;sketch=1;curveFitting=1;jiggle=2;" vertex="1" parent="1">
          <mxGeometry x="300" y="240" width="80" height="30" as="geometry" />
        </mxCell>
      </root>
    </mxGraphModel>
  </diagram>
</mxfile>
